# xmcd
#
# Track frame offsets:
#	182
#	10157
#	46632
#	59215
#	68987
#	83585
#	101277
#	112447
#	125047
#	145172
#	157650
#	176227
#	198427
#	210990
#	225740
#	236752
#	249875
#	273775
#	287650
#	296372
#
# Disc length: 4243
#
# Revision: 2
# Processed by: cddbd v1.5.1PL0 Copyright (c) Steve Scherf et al.
# Submitted via: audiograbber 1.81.02
# Normalized: r1:DSETVAR1
#
DISCID=1b109114
DTITLE=Various Artist - Guitar Heroes
DYEAR=1900
DGENRE=
TTITLE0=John Lee Hooker - Dimples
TTITLE1=Jimi Hendrix - Red House
TTITLE2=Yardbirds featuring Eric Clapton - Good Morning Little Girl
TTITLE3=Carl Perkins - Matchbox
TTITLE4=Jimmy Page - I See a Man Downstairs
TTITLE5=Lightnin' Hopkins - Want to Come Home
TTITLE6=Jonny Winter - Gangster of Love
TTITLE7=Jimmy Reed - Big Boss Man
TTITLE8=Jimi Hendrix - Under the Table
TTITLE9=John Lee Hooker - Crawlin' Kingsnake
TTITLE10=Robert Clay - The Score
TTITLE11=Santana - Soul Sacrifice
TTITLE12=Elmore James - The Sky is Crying
TTITLE13=T-Bone Walker - I Got a Break Baby
TTITLE14=Yardbirds featuring Jeff Beck - Shapes of Things
TTITLE15=Elmore James - Dust My Broom
TTITLE16=Yardbirds featuring Eric Clapton - Five Long Years
TTITLE17=Jeff Beck - Jeff's Blues
TTITLE18=Carl Perkins - Everybody's Trying To Be My Baby
TTITLE19=John Mayall - A Big Man
EXTD=
EXTT0=
EXTT1=
EXTT2=
EXTT3=
EXTT4=
EXTT5=
EXTT6=
EXTT7=
EXTT8=
EXTT9=
EXTT10=
EXTT11=
EXTT12=
EXTT13=
EXTT14=
EXTT15=
EXTT16=
EXTT17=
EXTT18=
EXTT19=
PLAYORDER=
